<svg width="1000" height="1000" xmlns="http://www.w3.org/2000/svg">
    <defs>
        <linearGradient id="topoGradient" x1="0%" y1="0%" x2="100%" y2="0%">
            <stop offset="0%" style="stop-color:#1E90FF;stop-opacity:0.3" />
            <stop offset="100%" style="stop-color:#9370DB;stop-opacity:0.3" />
        </linearGradient>
    </defs>
    
    <!-- Topographic contour lines -->
    <path d="M0,50 Q250,200 500,50 T1000,50" stroke="url(#topoGradient)" stroke-width="1" fill="none"/>
    <path d="M0,100 Q250,250 500,100 T1000,100" stroke="url(#topoGradient)" stroke-width="1" fill="none"/>
    <path d="M0,150 Q250,300 500,150 T1000,150" stroke="url(#topoGradient)" stroke-width="1" fill="none"/>
    <path d="M0,200 Q250,350 500,200 T1000,200" stroke="url(#topoGradient)" stroke-width="1" fill="none"/>
    <path d="M0,250 Q250,400 500,250 T1000,250" stroke="url(#topoGradient)" stroke-width="1" fill="none"/>
    <path d="M0,300 Q250,450 500,300 T1000,300" stroke="url(#topoGradient)" stroke-width="1" fill="none"/>
    <path d="M0,350 Q250,500 500,350 T1000,350" stroke="url(#topoGradient)" stroke-width="1" fill="none"/>
    <path d="M0,400 Q250,550 500,400 T1000,400" stroke="url(#topoGradient)" stroke-width="1" fill="none"/>
    <path d="M0,450 Q250,600 500,450 T1000,450" stroke="url(#topoGradient)" stroke-width="1" fill="none"/>
    <path d="M0,500 Q250,650 500,500 T1000,500" stroke="url(#topoGradient)" stroke-width="1" fill="none"/>
    <path d="M0,550 Q250,700 500,550 T1000,550" stroke="url(#topoGradient)" stroke-width="1" fill="none"/>
    <path d="M0,600 Q250,750 500,600 T1000,600" stroke="url(#topoGradient)" stroke-width="1" fill="none"/>
    <path d="M0,650 Q250,800 500,650 T1000,650" stroke="url(#topoGradient)" stroke-width="1" fill="none"/>
    <path d="M0,700 Q250,850 500,700 T1000,700" stroke="url(#topoGradient)" stroke-width="1" fill="none"/>
    <path d="M0,750 Q250,900 500,750 T1000,750" stroke="url(#topoGradient)" stroke-width="1" fill="none"/>
    <path d="M0,800 Q250,950 500,800 T1000,800" stroke="url(#topoGradient)" stroke-width="1" fill="none"/>
    <path d="M0,850 Q250,1000 500,850 T1000,850" stroke="url(#topoGradient)" stroke-width="1" fill="none"/>
    <path d="M0,900 Q250,1050 500,900 T1000,900" stroke="url(#topoGradient)" stroke-width="1" fill="none"/>
    <path d="M0,950 Q250,1100 500,950 T1000,950" stroke="url(#topoGradient)" stroke-width="1" fill="none"/>
</svg>
